<svg viewBox="0 0 1000 100" xmlns="http://www.w3.org/2000/svg">
  <path d="M0,0 L1000,0 L1000,100 L980,85 L960,95 L940,80 L920,90 L900,75 L880,95 L860,80 L840,90 L820,75 L800,95 L780,80 L760,90 L740,75 L720,95 L700,80 L680,90 L660,75 L640,95 L620,80 L600,90 L580,75 L560,95 L540,80 L520,90 L500,75 L480,95 L460,80 L440,90 L420,75 L400,95 L380,80 L360,90 L340,75 L320,95 L300,80 L280,90 L260,75 L240,95 L220,80 L200,90 L180,75 L160,95 L140,80 L120,90 L100,75 L80,95 L60,80 L40,90 L20,75 L0,100 Z" fill="black" />
</svg>
