<svg viewBox="0 0 1000 1000" xmlns="http://www.w3.org/2000/svg">
  <path d="M0,0 L1000,0 L1000,980 L980,990 L960,975 L940,995 L920,980 L900,990 L880,970 L860,985 L840,965 L820,980 L800,960 L780,975 L760,955 L740,970 L720,950 L700,965 L680,945 L660,960 L640,940 L620,955 L600,935 L580,950 L560,930 L540,945 L520,925 L500,940 L480,920 L460,935 L440,915 L420,930 L400,910 L380,925 L360,905 L340,920 L320,900 L300,915 L280,895 L260,910 L240,890 L220,905 L200,885 L180,900 L160,880 L140,895 L120,875 L100,890 L80,870 L60,885 L40,865 L20,880 L0,860 Z" fill="black" />
</svg>
