<svg viewBox="0 0 1000 1000" xmlns="http://www.w3.org/2000/svg">
  <path d="M5,5 L995,10 L980,990 L10,995 L20,980 Q10,970 20,960 T20,940 T20,920 T20,900 T20,880 T20,860 T20,840 T20,820 T20,800 T20,780 T20,760 T20,740 T20,720 T20,700 T20,680 T20,660 T20,640 T20,620 T20,600 T20,580 T20,560 T20,540 T20,520 T20,500 T20,480 T20,460 T20,440 T20,420 T20,400 T20,380 T20,360 T20,340 T20,320 T20,300 T20,280 T20,260 T20,240 T20,220 T20,200 T20,180 T20,160 T20,140 T20,120 T20,100 T20,80 T20,60 T20,40 T20,20 Z" fill="black" />
</svg>
