<svg xmlns="http://www.w3.org/2000/svg" viewBox="0 0 400 500" preserveAspectRatio="none">
  <path fill="white" d="
    M 0 8
    Q 15 12, 30 6
    Q 50 3, 70 9
    Q 90 14, 110 7
    Q 130 2, 150 10
    Q 175 15, 200 8
    Q 225 3, 250 11
    Q 275 16, 300 9
    Q 325 4, 350 12
    Q 375 17, 400 10
    L 400 490
    Q 385 484, 370 492
    Q 350 498, 330 488
    Q 310 482, 290 493
    Q 265 500, 240 489
    Q 215 482, 190 494
    Q 165 501, 140 490
    Q 115 483, 90 495
    Q 65 502, 40 491
    Q 20 484, 0 492
    Z
  "/>
</svg>
