<svg viewBox="0 0 1000 1000" xmlns="http://www.w3.org/2000/svg">
  <path d="M0,0 L1000,0 L1000,1000 L0,1000 L15,980 L5,960 L20,940 L10,920 L25,900 L15,880 L30,860 L20,840 L35,820 L25,800 L40,780 L30,760 L45,740 L35,720 L50,700 L40,680 L55,660 L45,640 L60,620 L50,600 L65,580 L55,560 L70,540 L60,520 L75,500 L65,480 L80,460 L70,440 L85,420 L75,400 L90,380 L80,360 L95,340 L85,320 L100,300 L90,280 L105,260 L95,240 L110,220 L100,200 L115,180 L105,160 L120,140 L110,120 L125,100 L115,80 L130,60 L120,40 L135,20 Z" fill="black" />
</svg>
