<svg xmlns="http://www.w3.org/2000/svg" viewBox="0 0 400 500" preserveAspectRatio="none">
  <path fill="white" d="
    M 0 12
    Q 20 5, 40 14
    Q 65 20, 90 10
    Q 115 4, 140 13
    Q 160 18, 180 8
    Q 205 2, 230 15
    Q 255 21, 280 11
    Q 305 5, 330 14
    Q 360 20, 390 9
    L 400 6
    L 400 485
    Q 380 495, 355 486
    Q 330 480, 305 491
    Q 280 498, 255 487
    Q 225 479, 195 492
    Q 170 500, 145 488
    Q 120 481, 95 493
    Q 70 500, 45 489
    Q 20 482, 0 494
    Z
  "/>
</svg>
