<svg viewBox="0 0 1000 1000" xmlns="http://www.w3.org/2000/svg">
  <path d="M10,10 L980,15 L995,980 L20,990 L10,970 L30,950 L15,930 L35,910 L20,890 L40,870 L25,850 L45,830 L30,810 L50,790 L35,770 L55,750 L40,730 L60,710 L45,690 L65,670 L50,650 L70,630 L55,610 L75,590 L60,570 L80,550 L65,530 L85,510 L70,490 L90,470 L75,450 L95,430 L80,410 L100,390 L85,370 L105,350 L90,330 L110,310 L95,290 L115,270 L100,250 L120,230 L105,210 L125,190 L110,170 L130,150 L115,130 L135,110 L120,90 L140,70 L125,50 L145,30 Z" fill="black" />
</svg>
